<?xml version="1.0" encoding="utf-8"?>
<!-- Generator: Adobe Illustrator 22.0.1, SVG Export Plug-In . SVG Version: 6.00 Build 0)  -->
<svg version="1.1" id="Layer_1" xmlns="http://www.w3.org/2000/svg" xmlns:xlink="http://www.w3.org/1999/xlink" x="0px" y="0px"
	 viewBox="0 0 1000 1000" style="enable-background:new 0 0 1000 1000;" xml:space="preserve">
<style type="text/css">
	.st0{fill:#B3D5E2;stroke:#000000;stroke-width:1.035;stroke-miterlimit:10;}
	.st1{fill:#F4C698;stroke:#000000;stroke-width:1.0246;stroke-miterlimit:10;}
	.st2{fill:#4F342F;}
	.st3{fill:#B9DEF8;}
	.st4{fill:#5FB6F1;}
	.st5{fill:#6F4C42;}
	.st6{fill:#F4C698;stroke:#000000;stroke-width:0.9844;stroke-miterlimit:10;}
	.st7{fill:#D2EFF7;stroke:#000000;stroke-width:0.8943;stroke-miterlimit:10;}
	.st8{fill:#D2EFF7;stroke:#000000;stroke-width:1.0246;stroke-miterlimit:10;}
	.st9{fill:#F4C698;stroke:#000000;stroke-width:1.1006;stroke-miterlimit:10;}
	.st10{fill:#F4C698;stroke:#000000;stroke-width:1.0047;stroke-miterlimit:10;}
	.st11{fill:#1E3441;stroke:#000000;stroke-width:1.0246;stroke-miterlimit:10;}
	.st12{fill:#FFFFFF;stroke:#000000;stroke-width:1.0196;stroke-miterlimit:10;}
	.st13{fill:#1E3441;}
	.st14{fill:#5E7D8A;}
	.st15{fill:#36474E;}
	.st16{fill:#FDDB83;}
</style>
<g id="Layer_3">
</g>
<g id="Layer_1_1_">
	<g id="Layer_2_1_">
	</g>
	<g>
		<g>
			<path class="st0" d="M670.6,570H551.6c-67.6,0-122.9,55.3-122.9,122.9v227c0,16.6,13.6,30.2,30.2,30.2h304.5
				c16.6,0,30.2-13.6,30.2-30.2v-227C793.4,625.2,738.1,570,670.6,570z"/>
			<path class="st1" d="M673.7,302.1h-20.3c-11.2,0-20.3-9.1-20.3-20.3v-46.9h-45.6v46.9c0,11.3-9.1,20.3-20.3,20.3H547
				c-14,0-25.3,11.4-25.3,25.3v268.5c0,14,11.4,25.3,25.3,25.3h126.7c14,0,25.3-11.4,25.3-25.3V327.4
				C699,313.4,687.7,302.1,673.7,302.1z"/>
			<ellipse id="Hair_Bun" class="st2" cx="610.4" cy="110.8" rx="58.2" ry="60.8"/>
			<path id="Crown_Outer" class="st3" d="M640.2,81.6c-1.6,0-3.2,0.4-4.7,1c-1.1,0.5-2.5-0.1-2.7-1.4c-2-9.9-11.2-17.4-22.4-17.4
				c-11.1,0-20.3,7.5-22.4,17.4c-0.2,1.2-1.6,1.9-2.7,1.4c-1.5-0.6-3-1-4.7-1c-6.1,0-11.2,4.9-11.4,11.1
				c-0.1,6.4,4.9,11.7,11.4,11.7c4.8,0,9-3.1,10.6-7.3c4.1,5.9,11.1,9.9,19.2,9.9s15.1-4,19.2-9.9c1.6,4.3,5.8,7.3,10.6,7.3
				c6.4,0,11.6-5.3,11.4-11.7C651.3,86.7,646.3,81.6,640.2,81.6z"/>
			<circle id="Crown_Inner" class="st4" cx="610.4" cy="88" r="17.7"/>
			<path id="Hair_Outline" class="st5" d="M614.7,88.7H606c-39.4,0-71.6,32.3-71.6,71.6v17.1c0,34.9,28.4,63.3,63.3,63.3h25.5
				c34.9,0,63.3-28.4,63.3-63.3v-17.2C686.3,120.8,654.2,88.7,614.7,88.7z"/>
			
				<ellipse id="Right_Ear" transform="matrix(0.2243 -0.9745 0.9745 0.2243 331.6313 815.5704)" class="st1" cx="678.1" cy="199.5" rx="15.2" ry="11.4"/>
			
				<ellipse id="Left_Ear" transform="matrix(0.9745 -0.2243 0.2243 0.9745 -30.6342 126.7696)" class="st1" cx="542.7" cy="198.2" rx="11.4" ry="15.2"/>
			<path id="Face_Outline" class="st6" d="M603.4,143.7c-14,5.1-8.2,2.5-29.1,8.7c-2.2,0.6-4.9,0.1-7.9,0.1
				c-10,5.9-16.8,17.6-16.8,30.8v20.6l0,0c0,0.4,0,0.9,0,1.2c0,36.3,27.2,71,60.8,71c33.6,0,60.8-34.6,60.8-71c0-0.4,0-0.9,0-1.2
				l0,0v-20.6c0-13.2-6.8-24.7-16.8-30.8c-2.7,0-6.8-8.9-8.9-10c-9.4-5.1-9.4-5.1-19.9-11.4C621.9,128.9,612.8,137.4,603.4,143.7"/>
			<path id="Inner_Hair" class="st5" d="M675.6,178.6c0-4.7-7-6.7-17.7-14c-31.6-21.5-30.4-34.2-30.4-34.2
				c-3.8,22.7-46.9,24.1-68.4,35.5c-11.6,6.2-14,12.6-14,12.6v-19l64.7-36.7h31.6l34.2,44.4v11.5H675.6z"/>
			<circle id="Right_Eye" cx="637.6" cy="197" r="8.9"/>
			<circle id="Left_Eye" cx="583.1" cy="197" r="8.9"/>
			<g>
				<path class="st7" d="M644.9,491.6c-25.3-16.7-43.9-16.4-69,0c-13.8,11.5-23.7,19.4-24.4,9.3c-2.3-36.6-5.4-73.1-7.8-109.7
					c0.7-15.3,9.1-38.6,25.5-44c26.6-3.8,55.9-3.8,82.3,0c16.3,7,24.4,27.2,25.5,44c-2.3,36.6-5.4,73.1-7.8,109.7
					C668.6,511.1,658.7,503.1,644.9,491.6z"/>
			</g>
			<path class="st8" d="M602.4,474.3c-1,0-2-0.1-3-0.2c-21.1-2.3-185.6-8.5-195.2,352.5c-0.1,4.9,4,9,8.9,8.7
				c35.4-1.9,162.8-19.4,195.9-172.1c0.2-1.5,2.3-1.5,2.6,0c33.1,152.7,160.6,170.2,195.9,172.1c4.9,0.2,9-3.7,8.9-8.7
				C807,465.6,642.6,471.7,621.4,474C620.4,474.2,602.6,474.3,602.4,474.3z"/>
		</g>
		<g>
			<rect x="270.3" y="242.4" class="st9" width="55.8" height="55.8"/>
			<g id="Groom_x27_s_Face">
				<path id="Hair_Outline_2_" class="st2" d="M302.8,73.6h-8.2c-36.7,0-66.9,32.3-66.9,71.6v17.2c0,34.9,26.6,63.3,59.1,63.3h23.7
					c32.5,0,59.1-28.4,59.1-63.3v-17.2c0-25-11.2-42.7-29.5-55.5c-6.3-4.5-10.3-1.9-17.7-3.8C317.4,84.6,313,73.6,302.8,73.6z"/>
				
					<ellipse id="Right_Ear_2_" transform="matrix(0.2243 -0.9745 0.9745 0.2243 104.5042 500.2123)" class="st1" cx="366.5" cy="184.5" rx="15.2" ry="11.4"/>
				
					<ellipse id="Left_Ear_2_" transform="matrix(0.9745 -0.2243 0.2243 0.9745 -35.1947 56.4779)" class="st1" cx="231" cy="183.1" rx="11.4" ry="15.2"/>
				<path id="Face_Outline_2_" class="st10" d="M291.5,128.8c-14.6,5.1-8.5,2.5-30.3,8.7c-2.3,0.6-5.2,0.1-8.3,0.1
					c-10.4,5.9-17.4,17.6-17.4,30.8V189l0,0c0,0.4,0,0.9,0,1.2c0,36.3,28.3,71,63.3,71c35,0,63.3-34.6,63.3-71c0-0.4,0-0.9,0-1.2
					l0,0v-20.6c0-13.2-7-24.7-17.4-30.8c-2.8,0-7-8.9-9.3-10c-9.8-5.1-9.8-5.1-20.6-11.4C310.9,113.9,301.2,122.3,291.5,128.8"/>
				<path id="Inner_Hair_2_" class="st2" d="M364,163.5c0-4.7-7-6.7-17.7-14c-31.8-21.5-30.5-34.1-30.5-34.1
					c-3.8,22.7-46.9,24.1-68.4,35.5c-11.6,6.2-14,12.6-14,12.6v-19l64.7-36.7h31.6l34.2,44.4L364,163.5L364,163.5z"/>
				<circle id="Right_Eye_2_" cx="325.9" cy="181.9" r="8.9"/>
				<circle id="Left_Eye_2_" cx="271.6" cy="181.9" r="8.9"/>
			</g>
			<g>
				<ellipse class="st9" cx="384.9" cy="587.5" rx="22.7" ry="29.8"/>
				<ellipse class="st9" cx="212.6" cy="587.5" rx="22.7" ry="29.8"/>
			</g>
			<path class="st11" d="M355.9,276H241.6c-32,0-58.2,26.2-58.2,58.2v246.5c0,3.8,3.1,6.9,6.9,6.9H407c3.8,0,6.9-3.1,6.9-6.9V334.1
				C414.1,302.2,387.9,276,355.9,276z"/>
			<polygon class="st12" points="298.7,461.6 357.7,280.4 239.9,280.4 			"/>
			<g>
				<path class="st13" d="M383.9,586.9c-56.7,0-113.5,0-170.2,0c9.5,113.1,18.9,226.4,28.4,339.5c37.8,0,75.7,0,113.5,0
					C365,813.3,374.4,700,383.9,586.9z"/>
			</g>
			<g>
				<path class="st14" d="M327.6,265.9l-28.8,9.6l-28.8-9.6c-4.5,0-8,3.6-8,8v14.3c0,4.5,3.6,8,8,8l28.8-8l28.8,8c4.5,0,8-3.6,8-8
					v-14.5C335.6,269.4,332,265.9,327.6,265.9z"/>
				<circle class="st15" cx="298.7" cy="283.4" r="12"/>
				<ellipse class="st15" cx="313.2" cy="283" rx="11.3" ry="2.8"/>
				<ellipse class="st15" cx="284.4" cy="283" rx="11.3" ry="2.8"/>
			</g>
			<circle class="st16" cx="366.5" cy="376.6" r="17.7"/>
		</g>
	</g>
</g>
</svg>
